# xmcd
#
# Track frame offsets:
#        150
#        17740
#        46555
#        61780
#        78000
#        89930
#        101855
#        120910
#        138745
#        154750
#        167275
#        193225
#        208875
#        236320
#
# Disc length: 3512 seconds
#
# Revision: 0
# Processed by: cddbd v1.5.1PL2 Copyright (c) Steve Scherf et al.
# Submitted via: ExactAudioCopy v0.95a5
#
DISCID=b10db60e
DTITLE=BLUES HOUSE BLUES BAND - Reunion Live
DYEAR=1995
DGENRE=Blues
TTITLE0=Country Girl
TTITLE1=So Sad To Be Alone
TTITLE2=Hound Dog
TTITLE3=Early In The Morning
TTITLE4=Blues House Boogie
TTITLE5=It Hurt Me Too
TTITLE6=Help Me
TTITLE7=Blues With A Feeling
TTITLE8=Mellow Down Easy
TTITLE9=Checkin' Up On My Baby
TTITLE10=Just Make Love To Me
TTITLE11=Messin' With The Kid
TTITLE12=Make A Way
TTITLE13=First Time I Met The Blues
EXTD=
EXTT0=
EXTT1=
EXTT2=
EXTT3=
EXTT4=
EXTT5=
EXTT6=
EXTT7=
EXTT8=
EXTT9=
EXTT10=
EXTT11=
EXTT12=
EXTT13=
PLAYORDER=
